<svg width="40" height="40" viewBox="0 0 40 40" fill="none" xmlns="http://www.w3.org/2000/svg">
<path d="M0 8C0 3.58172 3.58172 0 8 0H32C36.4183 0 40 3.58172 40 8V32C40 36.4183 36.4183 40 32 40H8C3.58172 40 0 36.4183 0 32V8Z" fill="#55ACEE"/>
<path d="M26.9966 16.3309C27.009 16.4911 27.009 16.6506 27.009 16.8101C27.009 21.6913 23.2937 27.3157 16.504 27.3157C14.4119 27.3157 12.4684 26.7101 10.8335 25.6575C11.1305 25.6919 11.4165 25.7036 11.7252 25.7036C13.4508 25.7036 15.0396 25.1206 16.3094 24.1257C15.5389 24.1119 14.7918 23.8577 14.1727 23.3987C13.5536 22.9397 13.0933 22.2988 12.8561 21.5655C13.0844 21.5999 13.314 21.6226 13.5539 21.6226C13.8846 21.6226 14.2174 21.5765 14.5267 21.4967C13.6906 21.3279 12.9387 20.8747 12.3989 20.2142C11.8591 19.5537 11.5647 18.7266 11.5657 17.8736V17.8276C12.0773 18.1126 12.649 18.273 13.2342 18.2957C12.7275 17.959 12.3119 17.5021 12.0246 16.9658C11.7373 16.4295 11.5872 15.8304 11.5877 15.2219C11.5877 14.5365 11.7699 13.9074 12.0896 13.3595C13.0174 14.5008 14.1746 15.4345 15.4862 16.1001C16.7979 16.7657 18.2347 17.1483 19.7036 17.2232C19.6446 16.9452 19.6139 16.6619 19.6122 16.3776C19.6122 14.3426 21.2587 12.6851 23.3041 12.6851C24.3676 12.6851 25.3274 13.1306 26.0025 13.8511C26.8291 13.6911 27.6219 13.3891 28.3455 12.9587C28.0698 13.812 27.4925 14.5355 26.7216 14.9937C27.4548 14.9101 28.1713 14.7173 28.8474 14.4217C28.3425 15.158 27.7167 15.8037 26.9966 16.3316V16.3309Z" fill="#F7F7F7"/>
</svg>
