<svg width="40" height="40" viewBox="0 0 40 40" fill="none" xmlns="http://www.w3.org/2000/svg">
<path d="M0 8C0 3.58172 3.58172 0 8 0H32C36.4183 0 40 3.58172 40 8V32C40 36.4183 36.4183 40 32 40H8C3.58172 40 0 36.4183 0 32V8Z" fill="#FF0000"/>
<path d="M28.7479 14.9563C29.1668 16.5898 29.1668 19.9998 29.1668 19.9998C29.1668 19.9998 29.1668 23.4098 28.7479 25.0433C28.5151 25.9463 27.834 26.6567 26.9714 26.8968C25.4048 27.3332 20.0002 27.3332 20.0002 27.3332C20.0002 27.3332 14.5982 27.3332 13.0289 26.8968C12.1627 26.653 11.4825 25.9435 11.2524 25.0433C10.8335 23.4098 10.8335 19.9998 10.8335 19.9998C10.8335 19.9998 10.8335 16.5898 11.2524 14.9563C11.4852 14.0534 12.1663 13.343 13.0289 13.1028C14.5982 12.6665 20.0002 12.6665 20.0002 12.6665C20.0002 12.6665 25.4048 12.6665 26.9714 13.1028C27.8377 13.3467 28.5178 14.0562 28.7479 14.9563ZM18.1668 23.2082L23.6668 19.9998L18.1668 16.7915V23.2082Z" fill="white"/>
</svg>
